<svg width="22" height="28" viewBox="0 0 22 28" fill="none" xmlns="http://www.w3.org/2000/svg">
<path fill-rule="evenodd" clip-rule="evenodd" d="M15 6V9H7V6C7 3.79086 8.79086 2 11 2C13.2091 2 15 3.79086 15 6ZM5 9V6C5 2.68629 7.68629 0 11 0C14.3137 0 17 2.68629 17 6V9H19C20.6569 9 22 10.3431 22 12V25C22 26.6569 20.6569 28 19 28H3C1.34315 28 0 26.6569 0 25V12C0 10.3431 1.34315 9 3 9H5ZM14 18.5C14 20.1569 12.6569 21.5 11 21.5C9.34315 21.5 8 20.1569 8 18.5C8 16.8431 9.34315 15.5 11 15.5C12.6569 15.5 14 16.8431 14 18.5Z" fill="#004261"/>
</svg>
